<svg width="16" height="16" viewBox="0 0 16 16" fill="none" xmlns="http://www.w3.org/2000/svg">
<path fill-rule="evenodd" clip-rule="evenodd" d="M7.33337 2.66671C4.75605 2.66671 2.66671 4.75605 2.66671 7.33337C2.66671 9.9107 4.75605 12 7.33337 12C9.9107 12 12 9.9107 12 7.33337C12 4.75605 9.9107 2.66671 7.33337 2.66671ZM1.33337 7.33337C1.33337 4.01967 4.01967 1.33337 7.33337 1.33337C10.6471 1.33337 13.3334 4.01967 13.3334 7.33337C13.3334 10.6471 10.6471 13.3334 7.33337 13.3334C4.01967 13.3334 1.33337 10.6471 1.33337 7.33337Z" fill="url(#paint0_linear_20601_9105)"/>
<path fill-rule="evenodd" clip-rule="evenodd" d="M10.6286 10.6286C10.889 10.3683 11.3111 10.3683 11.5714 10.6286L14.4714 13.5286C14.7318 13.789 14.7318 14.2111 14.4714 14.4714C14.2111 14.7318 13.789 14.7318 13.5286 14.4714L10.6286 11.5714C10.3683 11.3111 10.3683 10.889 10.6286 10.6286Z" fill="url(#paint1_linear_20601_9105)"/>
<defs>
<linearGradient id="paint0_linear_20601_9105" x1="7.11725" y1="-20.9791" x2="-39.2609" y2="15.8034" gradientUnits="userSpaceOnUse">
<stop stop-color="#F83600"/>
<stop offset="1" stop-color="#F9D423"/>
</linearGradient>
<linearGradient id="paint1_linear_20601_9105" x1="12.4738" y1="2.56199" x2="-3.8874" y2="15.538" gradientUnits="userSpaceOnUse">
<stop stop-color="#F83600"/>
<stop offset="1" stop-color="#F9D423"/>
</linearGradient>
</defs>
</svg>
