<svg width="32" height="32" viewBox="0 0 32 32" fill="none" xmlns="http://www.w3.org/2000/svg">
<path fill-rule="evenodd" clip-rule="evenodd" d="M2.66669 16C2.66669 15.2636 3.26364 14.6666 4.00002 14.6666H28C28.7364 14.6666 29.3334 15.2636 29.3334 16C29.3334 16.7363 28.7364 17.3333 28 17.3333H4.00002C3.26364 17.3333 2.66669 16.7363 2.66669 16Z" fill="#363636"/>
<path fill-rule="evenodd" clip-rule="evenodd" d="M2.66669 7.99996C2.66669 7.26358 3.26364 6.66663 4.00002 6.66663H28C28.7364 6.66663 29.3334 7.26358 29.3334 7.99996C29.3334 8.73634 28.7364 9.33329 28 9.33329H4.00002C3.26364 9.33329 2.66669 8.73634 2.66669 7.99996Z" fill="#363636"/>
<path fill-rule="evenodd" clip-rule="evenodd" d="M2.66669 24C2.66669 23.2636 3.26364 22.6666 4.00002 22.6666H28C28.7364 22.6666 29.3334 23.2636 29.3334 24C29.3334 24.7363 28.7364 25.3333 28 25.3333H4.00002C3.26364 25.3333 2.66669 24.7363 2.66669 24Z" fill="#363636"/>
</svg>
