<svg width="174" height="242" viewBox="0 0 174 242" fill="none" xmlns="http://www.w3.org/2000/svg">
<rect x="0.5" y="0.5" width="173" height="241" rx="9.5" fill="#F9F9FA" stroke="#A7A7A7"/>
<path d="M93.25 111.447H80.125L72.25 104.5L70.5 123.605C70.5 128.816 74 137.5 86.25 137.5C98.5 137.5 102 128.816 102 123.605C102 121.521 100.833 110 100.25 104.5L93.25 111.447Z" stroke="#363636" stroke-width="2" stroke-linejoin="round"/>
<path d="M78 124H66" stroke="#363636" stroke-width="2" stroke-linecap="round" stroke-linejoin="round"/>
<path d="M108 124H96" stroke="#363636" stroke-width="2" stroke-linecap="round" stroke-linejoin="round"/>
<path d="M79.5 131.5H67.5" stroke="#363636" stroke-width="2" stroke-linecap="round" stroke-linejoin="round"/>
<path d="M106.5 131.5H94.5" stroke="#363636" stroke-width="2" stroke-linecap="round" stroke-linejoin="round"/>
<path d="M86.25 124V127C87.25 128 89.7 129.4 91.5 127" stroke="#363636" stroke-width="2" stroke-linecap="round" stroke-linejoin="round"/>
<path d="M86.25 127C85.25 128 82.8 129.4 81 127" stroke="#363636" stroke-width="2" stroke-linecap="round" stroke-linejoin="round"/>
</svg>
