<svg width="445" height="594" viewBox="0 0 445 594" fill="none" xmlns="http://www.w3.org/2000/svg">
<rect x="0.5" y="0.5" width="444" height="592" rx="9.5" fill="#F9F9FA" stroke="#A7A7A7"/>
<path d="M230.292 285.855H214.979L205.792 277.75L203.75 300.039C203.75 306.118 207.833 316.25 222.125 316.25C236.417 316.25 240.5 306.118 240.5 300.039C240.5 297.608 239.139 284.167 238.458 277.75L230.292 285.855Z" stroke="#363636" stroke-width="2" stroke-linejoin="round"/>
<path d="M212.5 300.5H198.5" stroke="#363636" stroke-width="2" stroke-linecap="round" stroke-linejoin="round"/>
<path d="M247.5 300.5H233.5" stroke="#363636" stroke-width="2" stroke-linecap="round" stroke-linejoin="round"/>
<path d="M214.25 309.25H200.25" stroke="#363636" stroke-width="2" stroke-linecap="round" stroke-linejoin="round"/>
<path d="M245.75 309.25H231.75" stroke="#363636" stroke-width="2" stroke-linecap="round" stroke-linejoin="round"/>
<path d="M222.125 300.5V304C223.292 305.167 226.15 306.8 228.25 304" stroke="#363636" stroke-width="2" stroke-linecap="round" stroke-linejoin="round"/>
<path d="M222.125 304C220.958 305.167 218.1 306.8 216 304" stroke="#363636" stroke-width="2" stroke-linecap="round" stroke-linejoin="round"/>
</svg>
